# xmcd CD database file
#
# Track frame offsets:
#	150
#	15934
#	31720
#	45858
#	60006
#	78783
#	97550
#	110178
#	122747
#	140824
#	158858
#	174735
#	190633
#	208101
#	225560
#	242854
#	260310
#	275696
#	291102
#	306108
#	321232
#
# Disc length: 4301 seconds
#
# Revision: 0
# Processed by: cddbd v1.5.1PL0 Copyright (c) Steve Scherf et al.
# Submitted via: CDex 1.51
#
DISCID=1010cb15
DTITLE=Hal Leonard - Cool Jazz - vol 19
DYEAR=1900
DGENRE=Jazz
TTITLE0=Boplicity - split
TTITLE1=Boplicity
TTITLE2=Line For Lyons - split
TTITLE3=Line For Lyons
TTITLE4=Whisper Not - split
TTITLE5=Whisper Not
TTITLE6=Budo - split
TTITLE7=Budo
TTITLE8=Waltz For Debby - split
TTITLE9=Waltz For Debby
TTITLE10=Five Brothers - split
TTITLE11=Five Brothers
TTITLE12=Walkin Shoes - split
TTITLE13=Walkin Shoes
TTITLE14=Bernie's Tune - split
TTITLE15=Bernie's Tune
TTITLE16=Django - split
TTITLE17=Django
TTITLE18=Conception - split
TTITLE19=Conception
TTITLE20=Bb Tuning Notes
EXTD=
EXTT0=
EXTT1=
EXTT2=
EXTT3=
EXTT4=
EXTT5=
EXTT6=
EXTT7=
EXTT8=
EXTT9=
EXTT10=
EXTT11=
EXTT12=
EXTT13=
EXTT14=
EXTT15=
EXTT16=
EXTT17=
EXTT18=
EXTT19=
EXTT20=
PLAYORDER=
